<svg xmlns="http://www.w3.org/2000/svg" xmlns:xlink="http://www.w3.org/1999/xlink" version="1.1" width="1000" height="1000" viewBox="0 0 1000 1000" xml:space="preserve">
<desc>Created with Fabric.js 3.5.0</desc>
<defs>
</defs>
<rect x="0" y="0" width="100%" height="100%" fill="#ffffff"/>
<g transform="matrix(0.3203 0 0 0.3203 499.9924 499.9972)" id="225368">
<g style="" vector-effect="non-scaling-stroke">
		<g transform="matrix(0.9972 0 0 0.9972 -20.4707 -196.8534)" id="surface1">
<path style="stroke: none; stroke-width: 1; stroke-dasharray: none; stroke-linecap: butt; stroke-dashoffset: 0; stroke-linejoin: miter; stroke-miterlimit: 4; is-custom-font: none; font-file-url: none; fill: rgb(147,147,147); fill-rule: nonzero; opacity: 1;" transform=" translate(-860.4648, -126.66)" d="M 781.183594 101.296875 C 832.769531 80.511719 892.707031 80.835938 943.800781 103.011719 C 974.753906 116.125 1002.292969 136.992188 1023.824219 162.753906 C 1021.769531 164.121094 1019.820312 165.644531 1017.972656 167.261719 C 985.269531 127.378906 936.890625 100.695312 885.625 94.6875 C 852.160156 90.398438 817.707031 94.605469 786.316406 106.988281 C 754.007812 119.546875 724.949219 140.511719 702.929688 167.285156 C 701.074219 165.667969 699.136719 164.136719 697.105469 162.761719 C 719.519531 135.78125 748.609375 114.355469 781.183594 101.296875 Z M 781.183594 101.296875" stroke-linecap="round"/>
</g>
		<g transform="matrix(0.9972 0 0 0.9972 -219.968 -67.896)" id="surface1">
<path style="stroke: none; stroke-width: 1; stroke-dasharray: none; stroke-linecap: butt; stroke-dashoffset: 0; stroke-linejoin: miter; stroke-miterlimit: 4; is-custom-font: none; font-file-url: none; fill: rgb(147,147,147); fill-rule: nonzero; opacity: 1;" transform=" translate(-660.4055, -255.9844)" d="M 665.554688 214.246094 C 667.644531 215.445312 669.785156 216.625 672.042969 217.515625 C 661.789062 242.15625 655.992188 268.675781 655.691406 295.394531 C 653.414062 296.257812 651.105469 297.015625 648.785156 297.722656 C 648.394531 269.09375 654.710938 240.65625 665.554688 214.246094 Z M 665.554688 214.246094" stroke-linecap="round"/>
</g>
		<g transform="matrix(0.9972 0 0 0.9972 176.7766 -89.6552)" id="surface1">
<path style="stroke: none; stroke-width: 1; stroke-dasharray: none; stroke-linecap: butt; stroke-dashoffset: 0; stroke-linejoin: miter; stroke-miterlimit: 4; is-custom-font: none; font-file-url: none; fill: rgb(147,147,147); fill-rule: nonzero; opacity: 1;" transform=" translate(-1058.2793, -234.1641)" d="M 1048.875 217.492188 C 1051.125 216.605469 1053.234375 215.425781 1055.367188 214.25 C 1060.320312 227.246094 1065.105469 240.371094 1067.683594 254.078125 C 1065.175781 254.066406 1062.726562 254.066406 1060.273438 254.074219 C 1057.945312 241.464844 1053.605469 229.371094 1048.875 217.492188 Z M 1048.875 217.492188" stroke-linecap="round"/>
</g>
		<g transform="matrix(0.9972 0 0 0.9972 99.8624 63.2435)" id="surface1">
<path style="stroke: none; stroke-width: 1; stroke-dasharray: none; stroke-linecap: butt; stroke-dashoffset: 0; stroke-linejoin: miter; stroke-miterlimit: 4; is-custom-font: none; font-file-url: none; fill: rgb(147,147,147); fill-rule: nonzero; opacity: 1;" transform=" translate(-981.1432, -387.4941)" d="M 1062.917969 267.410156 C 1065.230469 267.410156 1067.574219 267.410156 1069.9375 267.414062 C 1078.058594 320.484375 1064.636719 376.472656 1033.382812 420.117188 C 1003.449219 462.808594 957.117188 493.746094 906.101562 504.632812 C 900.957031 505.785156 895.753906 506.570312 890.59375 507.578125 C 890.519531 505.085938 890.507812 502.613281 890.027344 500.164062 C 927.464844 495.1875 963.105469 478.777344 991.980469 454.53125 C 1032.617188 420.671875 1059.273438 370.488281 1064.191406 317.777344 C 1066.203125 301.015625 1065.046875 284.097656 1062.917969 267.410156 Z M 1062.917969 267.410156" stroke-linecap="round"/>
</g>
		<g transform="matrix(0.9972 0 0 0.9972 -140.5361 84.0995)" id="surface1">
<path style="stroke: none; stroke-width: 1; stroke-dasharray: none; stroke-linecap: butt; stroke-dashoffset: 0; stroke-linejoin: miter; stroke-miterlimit: 4; is-custom-font: none; font-file-url: none; fill: rgb(147,147,147); fill-rule: nonzero; opacity: 1;" transform=" translate(-740.0605, -408.4102)" d="M 649.203125 311.425781 C 651.523438 310.75 653.820312 309.96875 656.128906 309.210938 C 657.945312 342.363281 667.882812 375.015625 685.171875 403.375 C 716.09375 455.160156 771.027344 492.1875 830.917969 500.191406 C 830.566406 502.640625 830.363281 505.125 830.339844 507.609375 C 809.507812 504.320312 788.992188 498.519531 769.949219 489.371094 C 738.269531 474.4375 710.417969 451.410156 689.65625 423.210938 C 665.902344 390.804688 651.511719 351.578125 649.203125 311.425781 Z M 649.203125 311.425781" stroke-linecap="round"/>
</g>
		<g transform="matrix(0.9972 0 0 0.9972 -198.511 -134.7124)" id="surface1">
<path style="stroke: none; stroke-width: 1; stroke-dasharray: none; stroke-linecap: butt; stroke-dashoffset: 0; stroke-linejoin: miter; stroke-miterlimit: 4; is-custom-font: none; font-file-url: none; fill: rgb(104,104,104); fill-rule: nonzero; opacity: 1;" transform=" translate(-681.9229, -188.9782)" d="M 652.957031 180.8125 C 656.226562 168.300781 668.546875 158.449219 681.652344 159.144531 C 687.050781 158.75 692.386719 160.191406 697.105469 162.761719 C 699.136719 164.136719 701.074219 165.667969 702.929688 167.285156 C 709.296875 173.335938 712.679688 182.253906 711.789062 191.019531 C 711.609375 201.511719 704.882812 211.300781 695.53125 215.84375 C 688.414062 219.867188 679.726562 219.296875 672.042969 217.515625 C 669.785156 216.625 667.644531 215.445312 665.554688 214.246094 C 654.429688 207.523438 649.621094 193.140625 652.957031 180.8125 Z M 652.957031 180.8125" stroke-linecap="round"/>
</g>
		<g transform="matrix(0.9972 0 0 0.9972 157.5114 -134.7906)" id="surface1">
<path style="stroke: none; stroke-width: 1; stroke-dasharray: none; stroke-linecap: butt; stroke-dashoffset: 0; stroke-linejoin: miter; stroke-miterlimit: 4; is-custom-font: none; font-file-url: none; fill: rgb(104,104,104); fill-rule: nonzero; opacity: 1;" transform=" translate(-1038.9584, -188.8998)" d="M 1023.824219 162.753906 C 1033.488281 157.511719 1046.28125 157.480469 1055.46875 163.800781 C 1063.136719 168.601562 1068.453125 177.277344 1068.722656 186.394531 C 1070.140625 197.226562 1064.503906 208.453125 1055.367188 214.25 C 1053.234375 215.425781 1051.125 216.605469 1048.875 217.492188 C 1044.855469 218.816406 1040.585938 219.105469 1036.402344 218.691406 C 1024.546875 218.527344 1013.972656 209.539062 1010.351562 198.507812 C 1007.125 187.765625 1009.542969 175.015625 1017.972656 167.261719 C 1019.820312 165.644531 1021.769531 164.121094 1023.824219 162.753906 Z M 1023.824219 162.753906" stroke-linecap="round"/>
</g>
		<g transform="matrix(0.9972 0 0 0.9972 -20.4738 181.3877)" id="surface1">
<path style="stroke: none; stroke-width: 1; stroke-dasharray: none; stroke-linecap: butt; stroke-dashoffset: 0; stroke-linejoin: miter; stroke-miterlimit: 4; is-custom-font: none; font-file-url: none; fill: rgb(104,104,104); fill-rule: nonzero; opacity: 1;" transform=" translate(-860.4668, -505.9778)" d="M 830.917969 500.191406 C 833.585938 484.699219 850.054688 473.011719 865.585938 476.484375 C 877.765625 478.007812 887.71875 488.289062 890.027344 500.164062 C 890.507812 502.613281 890.519531 505.085938 890.59375 507.578125 C 890.15625 519.832031 881.253906 531.066406 869.671875 534.792969 C 863.109375 536.457031 855.902344 536.78125 849.542969 534.164062 C 838.722656 530.007812 830.832031 519.234375 830.339844 507.609375 C 830.363281 505.125 830.566406 502.640625 830.917969 500.191406 Z M 830.917969 500.191406" stroke-linecap="round"/>
</g>
		<g transform="matrix(0.9972 0 0 0.9972 -743.6992 -19.6637)" id="surface1">
<path style="stroke: none; stroke-width: 1; stroke-dasharray: none; stroke-linecap: butt; stroke-dashoffset: 0; stroke-linejoin: miter; stroke-miterlimit: 4; is-custom-font: none; font-file-url: none; fill: rgb(20,20,20); fill-rule: nonzero; opacity: 1;" transform=" translate(-135.181, -304.3534)" d="M 129.292969 249.21875 C 133.308594 248.742188 137.394531 248.679688 141.410156 249.226562 C 149.019531 250.675781 155.410156 255.90625 159.738281 262.175781 C 180 289.710938 200.71875 316.902344 221.085938 344.355469 C 223.226562 347.550781 226.917969 350.410156 226.214844 354.722656 C 225.445312 360.195312 217.421875 361.644531 214.398438 357.402344 C 194.324219 330.429688 174.035156 303.613281 153.949219 276.644531 C 149.933594 271.351562 145.589844 265.410156 139.039062 263.21875 C 130.769531 260.5625 123.734375 267.164062 119.230469 273.214844 C 100.875 297.328125 82.816406 321.667969 64.480469 345.789062 C 61.191406 350.023438 58.300781 354.589844 54.554688 358.445312 C 52.644531 360.332031 49.53125 360.097656 47.230469 359.101562 C 44.597656 357.917969 43.964844 354.617188 44.070312 352.03125 C 46.304688 347.046875 50.214844 343.117188 53.316406 338.6875 C 70.863281 315.136719 88.28125 291.488281 105.894531 267.988281 C 109.335938 263.386719 112.363281 258.308594 116.957031 254.726562 C 120.621094 252.082031 124.769531 249.859375 129.292969 249.21875 Z M 129.292969 249.21875" stroke-linecap="round"/>
</g>
		<g transform="matrix(0.9972 0 0 0.9972 -508.0784 -16.9729)" id="surface1">
<path style="stroke: none; stroke-width: 1; stroke-dasharray: none; stroke-linecap: butt; stroke-dashoffset: 0; stroke-linejoin: miter; stroke-miterlimit: 4; is-custom-font: none; font-file-url: none; fill: rgb(20,20,20); fill-rule: nonzero; opacity: 1;" transform=" translate(-371.4718, -307.0519)" d="M 291.890625 254.421875 C 297.578125 253.921875 303.296875 254.0625 309 254.066406 C 360.308594 254.183594 411.625 253.996094 462.929688 254.140625 C 468.0625 254.746094 469.84375 261.71875 466.566406 265.265625 C 464.160156 267.785156 460.25 267.148438 457.152344 267.414062 C 403.136719 267.445312 349.113281 267.34375 295.101562 267.445312 C 287.730469 267.257812 280.445312 273.09375 279.222656 280.398438 C 276.417969 290.742188 286.445312 301.367188 296.824219 300.371094 C 346.023438 300.441406 395.21875 300.390625 444.417969 300.382812 C 449.542969 300.3125 454.84375 300.898438 459.460938 303.292969 C 469.0625 307.648438 475.785156 317.671875 476.1875 328.199219 C 477.613281 340.113281 470.375 352.335938 459.472656 357.164062 C 453.734375 359.960938 447.183594 360.03125 440.941406 360.058594 C 387.890625 359.976562 334.832031 360.023438 281.773438 360.039062 C 278.054688 360.214844 274.113281 357.066406 274.796875 353.042969 C 274.59375 351.183594 275.628906 349.441406 276.996094 348.269531 C 278.859375 345.992188 282.179688 347.085938 284.679688 346.675781 C 337.730469 346.757812 390.789062 346.636719 443.84375 346.75 C 448.828125 346.796875 454.566406 346.433594 458.253906 342.605469 C 462.6875 339.035156 464.953125 333.039062 463.746094 327.40625 C 462.675781 321.132812 457.691406 315.734375 451.546875 314.113281 C 443.792969 313.289062 435.980469 313.792969 428.203125 313.707031 C 383.839844 313.683594 339.472656 313.777344 295.109375 313.679688 C 283.046875 313.191406 271.699219 304.960938 267.96875 293.433594 C 265.863281 285.894531 265.933594 277.335938 269.664062 270.296875 C 273.953125 261.898438 282.394531 255.449219 291.890625 254.421875 Z M 291.890625 254.421875" stroke-linecap="round"/>
</g>
		<g transform="matrix(0.9972 0 0 0.9972 -260.5804 -16.9878)" id="surface1">
<path style="stroke: none; stroke-width: 1; stroke-dasharray: none; stroke-linecap: butt; stroke-dashoffset: 0; stroke-linejoin: miter; stroke-miterlimit: 4; is-custom-font: none; font-file-url: none; fill: rgb(20,20,20); fill-rule: nonzero; opacity: 1;" transform=" translate(-619.6741, -307.037)" d="M 516.707031 259.3125 C 517.4375 254.28125 524.105469 252.273438 527.628906 255.960938 C 544.957031 270.140625 561.714844 285.941406 582.640625 294.710938 C 594.289062 299.796875 607.222656 300.269531 619.738281 300.445312 C 629.449219 300.429688 639.378906 300.511719 648.785156 297.722656 C 651.105469 297.015625 653.414062 296.257812 655.691406 295.394531 C 677.117188 286.621094 694.082031 270.28125 711.8125 255.914062 C 715.128906 252.203125 722.171875 254.414062 722.617188 259.390625 C 723.519531 263.929688 719.085938 266.453125 716.382812 269.15625 C 697.917969 284.675781 679.085938 300.800781 656.128906 309.210938 C 653.820312 309.96875 651.523438 310.75 649.203125 311.425781 C 643.085938 312.976562 636.738281 313.019531 630.566406 314.1875 C 628.210938 314.640625 626.578125 316.839844 626.410156 319.164062 C 625.53125 330.839844 626.46875 342.5625 626.109375 354.257812 C 626.023438 356.878906 623.851562 359.421875 621.242188 359.785156 C 617.265625 360.980469 612.558594 357.347656 613.4375 353.070312 C 613.03125 342.273438 613.714844 331.464844 613.296875 320.671875 C 613.164062 317.949219 611.699219 314.988281 608.910156 314.210938 C 602.644531 313.1875 596.210938 313.222656 590.046875 311.59375 C 575.5625 308.011719 562.675781 299.933594 550.636719 291.394531 C 541.363281 284.535156 532.414062 277.261719 523.699219 269.710938 C 520.601562 266.964844 515.882812 264.265625 516.707031 259.3125 Z M 516.707031 259.3125" stroke-linecap="round"/>
</g>
		<g transform="matrix(0.9972 0 0 0.9972 -13.0159 -16.9799)" id="surface1">
<path style="stroke: none; stroke-width: 1; stroke-dasharray: none; stroke-linecap: butt; stroke-dashoffset: 0; stroke-linejoin: miter; stroke-miterlimit: 4; is-custom-font: none; font-file-url: none; fill: rgb(20,20,20); fill-rule: nonzero; opacity: 1;" transform=" translate(-867.943, -307.0448)" d="M 788.363281 254.433594 C 795.007812 253.800781 801.703125 254.109375 808.378906 254.085938 C 858.535156 254.132812 908.699219 254.0625 958.859375 254.101562 C 962.460938 254.195312 965.4375 258.050781 964.679688 261.632812 C 964.632812 265.679688 960.039062 267.714844 956.503906 267.308594 C 901.535156 267.589844 846.554688 267.269531 791.585938 267.445312 C 782.175781 267.125 774.066406 276.578125 775.425781 285.855469 C 776.664062 294.195312 784.671875 301.210938 793.3125 300.371094 C 843.46875 300.5 893.632812 300.277344 943.789062 300.464844 C 958.882812 300.335938 972.75 313.503906 972.769531 328.75 C 973.851562 340.484375 966.804688 352.539062 955.964844 357.175781 C 950.203125 359.925781 943.667969 360.050781 937.425781 360.058594 C 883.996094 359.917969 830.558594 360.132812 777.136719 359.960938 C 771.941406 359.796875 769.324219 352.910156 772.628906 349.140625 C 774.667969 346.085938 778.648438 346.972656 781.742188 346.695312 C 835.761719 346.671875 889.777344 346.78125 943.796875 346.660156 C 951.617188 347.0625 959.140625 340.882812 960.296875 333.144531 C 962.226562 323.898438 954.472656 313.753906 944.929688 313.816406 C 893.824219 313.527344 842.703125 313.851562 791.597656 313.679688 C 777.003906 313.300781 763.5 300.753906 763.1875 285.949219 C 761.375 270.886719 773.46875 256.179688 788.363281 254.433594 Z M 788.363281 254.433594" stroke-linecap="round"/>
</g>
		<g transform="matrix(0.9972 0 0 0.9972 231.8234 -17.0067)" id="surface1">
<path style="stroke: none; stroke-width: 1; stroke-dasharray: none; stroke-linecap: butt; stroke-dashoffset: 0; stroke-linejoin: miter; stroke-miterlimit: 4; is-custom-font: none; font-file-url: none; fill: rgb(20,20,20); fill-rule: nonzero; opacity: 1;" transform=" translate(-1113.4794, -307.018)" d="M 1013.773438 263.363281 C 1011.613281 259.53125 1014.617188 254.210938 1018.980469 254.121094 C 1032.734375 253.816406 1046.5 254.265625 1060.273438 254.074219 C 1062.726562 254.066406 1065.175781 254.066406 1067.683594 254.078125 C 1114.15625 254.121094 1160.632812 254.089844 1207.105469 254.078125 C 1209.546875 254.160156 1212.355469 255.289062 1213.285156 257.738281 C 1215.21875 261.546875 1212.378906 267.027344 1207.992188 267.136719 C 1181.078125 267.878906 1154.136719 267.078125 1127.21875 267.472656 C 1123.410156 266.800781 1119.5625 270.488281 1120.335938 274.355469 C 1120.078125 300.402344 1120.445312 326.453125 1120.226562 352.503906 C 1120.265625 355.613281 1118.53125 359.027344 1115.261719 359.683594 C 1110.871094 361.261719 1106.019531 357.101562 1107.050781 352.480469 C 1106.777344 326.429688 1107.074219 300.371094 1106.988281 274.320312 C 1106.921875 272.21875 1106.003906 270.152344 1104.558594 268.664062 C 1102.59375 266.824219 1099.480469 267.773438 1097.144531 267.378906 C 1088.070312 267.296875 1078.996094 267.460938 1069.9375 267.414062 C 1067.574219 267.410156 1065.230469 267.410156 1062.917969 267.410156 C 1049.050781 267.234375 1035.195312 267.738281 1021.347656 267.292969 C 1018.347656 267.511719 1014.929688 266.414062 1013.773438 263.363281 Z M 1013.773438 263.363281" stroke-linecap="round"/>
</g>
		<g transform="matrix(0.9972 0 0 0.9972 474.9673 -63.173)" id="surface1">
<path style="stroke: none; stroke-width: 1; stroke-dasharray: none; stroke-linecap: butt; stroke-dashoffset: 0; stroke-linejoin: miter; stroke-miterlimit: 4; is-custom-font: none; font-file-url: none; fill: rgb(20,20,20); fill-rule: nonzero; opacity: 1;" transform=" translate(-1357.3151, -260.7221)" d="M 1258.820312 254.421875 C 1277.996094 253.59375 1297.230469 254.351562 1316.4375 254.097656 C 1360.800781 254.074219 1405.171875 254.148438 1449.539062 254.050781 C 1452.308594 254.320312 1455.636719 253.546875 1458.078125 255.382812 C 1461.449219 257.882812 1461.300781 263.542969 1458.035156 266.066406 C 1455.546875 267.679688 1452.289062 267.121094 1449.542969 267.414062 C 1386.839844 267.414062 1324.136719 267.398438 1261.441406 267.421875 C 1259.179688 267.421875 1256.804688 266.617188 1255.410156 264.761719 C 1252.726562 261.425781 1254.242188 255.089844 1258.820312 254.421875 Z M 1258.820312 254.421875" stroke-linecap="round"/>
</g>
		<g transform="matrix(0.9972 0 0 0.9972 717.8117 -16.9705)" id="surface1">
<path style="stroke: none; stroke-width: 1; stroke-dasharray: none; stroke-linecap: butt; stroke-dashoffset: 0; stroke-linejoin: miter; stroke-miterlimit: 4; is-custom-font: none; font-file-url: none; fill: rgb(20,20,20); fill-rule: nonzero; opacity: 1;" transform=" translate(-1600.8505, -307.0543)" d="M 1505.332031 254.351562 C 1509.410156 252.9375 1514.597656 256.511719 1513.695312 261.042969 C 1513.953125 284.199219 1513.578125 307.363281 1513.78125 330.523438 C 1514.21875 339.082031 1521.816406 346.90625 1530.554688 346.589844 C 1584.554688 346.890625 1638.574219 346.582031 1692.578125 346.722656 C 1696.636719 345.976562 1701.457031 349.183594 1700.726562 353.679688 C 1701 357.5625 1696.867188 360.65625 1693.132812 359.929688 C 1642.023438 360.175781 1590.902344 359.882812 1539.796875 360.070312 C 1532.621094 359.964844 1525.011719 360.320312 1518.410156 357.058594 C 1507.832031 352.382812 1500.019531 341.15625 1500.980469 329.359375 C 1501.074219 306.1875 1500.992188 283.019531 1501 259.855469 C 1500.855469 257.269531 1502.804688 254.835938 1505.332031 254.351562 Z M 1505.332031 254.351562" stroke-linecap="round"/>
</g>
		<g transform="matrix(0.9972 0 0 0.9972 474.8847 6.0716)" id="surface1">
<path style="stroke: none; stroke-width: 1; stroke-dasharray: none; stroke-linecap: butt; stroke-dashoffset: 0; stroke-linejoin: miter; stroke-miterlimit: 4; is-custom-font: none; font-file-url: none; fill: rgb(20,20,20); fill-rule: nonzero; opacity: 1;" transform=" translate(-1357.2322, -330.1629)" d="M 1259.953125 300.683594 C 1320.621094 299.953125 1381.328125 300.707031 1442.003906 300.320312 C 1445.539062 300.515625 1449.921875 299.515625 1452.773438 302.34375 C 1454.734375 304.175781 1454.007812 307.179688 1454.195312 309.570312 C 1452.765625 312.375 1449.804688 314.105469 1446.621094 313.625 C 1388.757812 313.851562 1330.878906 313.621094 1273.015625 313.726562 C 1271.515625 313.726562 1270.003906 314.355469 1269.109375 315.570312 C 1266.300781 318.921875 1267.402344 323.609375 1267.117188 327.609375 C 1267.394531 331.640625 1266.625 336.171875 1269.015625 339.742188 C 1271.71875 343.972656 1276.632812 346.867188 1281.734375 346.59375 C 1338.632812 346.890625 1395.542969 346.578125 1452.445312 346.726562 C 1457.558594 345.667969 1462.425781 351.132812 1459.988281 355.988281 C 1458.589844 360.421875 1453.121094 359.90625 1449.542969 360.023438 C 1393.601562 359.988281 1337.648438 360.074219 1281.710938 359.976562 C 1270.445312 360.320312 1260.335938 352.269531 1256.148438 342.15625 C 1254.578125 337.671875 1253.9375 332.929688 1253.976562 328.195312 C 1253.914062 320.148438 1253.59375 312.074219 1254.152344 304.046875 C 1254.253906 301.136719 1257.808594 300.910156 1259.953125 300.683594 Z M 1259.953125 300.683594" stroke-linecap="round"/>
</g>
</g>
</g>
</svg>